<?xml version="1.0" encoding="UTF-8"?>
<svg width="187px" height="303px" viewBox="0 0 187 303" version="1.1" xmlns="http://www.w3.org/2000/svg" xmlns:xlink="http://www.w3.org/1999/xlink">
    <!-- Generator: Sketch 61.2 (89653) - https://sketch.com -->
    <title>Group 3</title>
    <desc>Created with Sketch.</desc>
    <defs>
        <linearGradient x1="49.999691%" y1="9.34365981e-05%" x2="49.9996854%" y2="99.9996107%" id="linearGradient-1">
            <stop stop-color="#E57AD7" offset="0%"></stop>
            <stop stop-color="#2C285B" offset="52.929376%"></stop>
            <stop stop-color="#2C285B" offset="100%"></stop>
        </linearGradient>
        <linearGradient x1="49.999691%" y1="9.34365981e-05%" x2="49.9996854%" y2="99.9996107%" id="linearGradient-2">
            <stop stop-color="#E57AD7" offset="0%"></stop>
            <stop stop-color="#2C285B" offset="52.929376%"></stop>
            <stop stop-color="#2C285B" offset="100%"></stop>
        </linearGradient>
        <linearGradient x1="49.9996272%" y1="48.1545188%" x2="49.9996272%" y2="99.9997885%" id="linearGradient-3">
            <stop stop-color="#693180" offset="0%"></stop>
            <stop stop-color="#7AE5DA" offset="100%"></stop>
        </linearGradient>
        <linearGradient x1="-0.000170444861%" y1="49.9980872%" x2="99.9999041%" y2="49.9980872%" id="linearGradient-4">
            <stop stop-color="#511B35" offset="0%"></stop>
            <stop stop-color="#511B35" offset="47.070624%"></stop>
            <stop stop-color="#875CDB" offset="100%"></stop>
        </linearGradient>
        <linearGradient x1="47.006047%" y1="36.0822531%" x2="47.9112942%" y2="58.0342596%" id="linearGradient-5">
            <stop stop-color="#511B35" offset="0%"></stop>
            <stop stop-color="#511B35" offset="47.070624%"></stop>
            <stop stop-color="#875CDB" offset="100%"></stop>
        </linearGradient>
        <linearGradient x1="-15.0720861%" y1="36.3709317%" x2="111.307391%" y2="36.3709317%" id="linearGradient-6">
            <stop stop-color="#511B35" offset="0%"></stop>
            <stop stop-color="#511B35" offset="47.070624%"></stop>
            <stop stop-color="#875CDB" offset="100%"></stop>
        </linearGradient>
        <linearGradient x1="39.0436069%" y1="-4.25918072%" x2="55.5740792%" y2="77.6077961%" id="linearGradient-7">
            <stop stop-color="#562A85" offset="0%"></stop>
            <stop stop-color="#14B177" offset="72.5888%"></stop>
            <stop stop-color="#E580C3" offset="100%"></stop>
        </linearGradient>
        <linearGradient x1="247.412317%" y1="34.9592569%" x2="18.8936943%" y2="52.3695167%" id="linearGradient-8">
            <stop stop-color="#562A85" offset="0%"></stop>
            <stop stop-color="#14B177" offset="72.5888%"></stop>
            <stop stop-color="#E580C3" offset="100%"></stop>
        </linearGradient>
        <linearGradient x1="52.9320474%" y1="-7.9560447%" x2="45.7609718%" y2="133.781702%" id="linearGradient-9">
            <stop stop-color="#562A85" offset="0%"></stop>
            <stop stop-color="#14B177" offset="72.5888%"></stop>
            <stop stop-color="#E580C3" offset="100%"></stop>
        </linearGradient>
        <linearGradient x1="60.952834%" y1="104.261144%" x2="44.4237403%" y2="22.3939231%" id="linearGradient-10">
            <stop stop-color="#4D2A51" offset="0%"></stop>
            <stop stop-color="#28727D" offset="72.5888%"></stop>
            <stop stop-color="#B1888F" offset="100%"></stop>
        </linearGradient>
        <linearGradient x1="-147.402329%" y1="65.0435182%" x2="81.1087612%" y2="47.6341931%" id="linearGradient-11">
            <stop stop-color="#4D2A51" offset="0%"></stop>
            <stop stop-color="#28727D" offset="72.5888%"></stop>
            <stop stop-color="#B1888F" offset="100%"></stop>
        </linearGradient>
        <linearGradient x1="47.0579554%" y1="107.958447%" x2="54.2288405%" y2="-33.7760438%" id="linearGradient-12">
            <stop stop-color="#4D2A51" offset="0%"></stop>
            <stop stop-color="#28727D" offset="72.5888%"></stop>
            <stop stop-color="#B1888F" offset="100%"></stop>
        </linearGradient>
    </defs>
    <g id="Page-1" stroke="none" stroke-width="1" fill="none" fill-rule="evenodd">
        <g id="Group-3" fill-rule="nonzero">
            <g id="g1156" transform="translate(93.500000, 152.000000) scale(-1, 1) rotate(-180.000000) translate(-93.500000, -152.000000) ">
                <g id="g1158">
                    <g id="g1164">
                        <g id="g1166">
                            <polygon id="path1176" fill="url(#linearGradient-1)" points="0.784153314 1.03532814 186.369182 1.03532814 186.369182 303.690494 0.784153314 303.690494"></polygon>
                            <polygon id="path1176" fill="url(#linearGradient-2)" points="29.9966677 32.6827418 157.156668 32.6827418 157.156668 303.690494 29.9966677 303.690494"></polygon>
                        </g>
                    </g>
                </g>
            </g>
            <g id="g1506" opacity="0.300003" transform="translate(17.000000, 0.000000)" fill="#FFFFFF">
                <g id="g1320" transform="translate(8.000000, 248.000000)">
                    <polygon id="path1318" points="0 1.5 1.023 0.477 2.046 1.5 1.023 2.5245"></polygon>
                </g>
                <g id="g1324" transform="translate(40.000000, 257.000000)">
                    <polygon id="path1322" points="0 1.5 1.023 0.477 2.046 1.5 1.023 2.5245"></polygon>
                </g>
                <g id="g1328" transform="translate(2.000000, 287.000000)">
                    <polygon id="path1326" points="0 1.5 1.023 0.4755 2.046 1.5 1.023 2.523"></polygon>
                </g>
                <g id="g1332" transform="translate(64.000000, 219.000000)">
                    <polygon id="path1330" points="3 1.5 1.977 2.523 0.954 1.5 1.977 0.4755"></polygon>
                </g>
                <g id="g1336" transform="translate(73.000000, 266.000000)">
                    <polygon id="path1334" points="0 1.5 1.023 0.477 2.046 1.5 1.023 2.5245"></polygon>
                </g>
                <g id="g1340" transform="translate(41.000000, 293.000000)">
                    <polygon id="path1338" points="0 1.5 1.023 0.4755 2.046 1.5 1.023 2.523"></polygon>
                </g>
                <g id="g1344" transform="translate(74.000000, 287.000000)">
                    <polygon id="path1342" points="0 1.5 1.023 0.4755 2.046 1.5 1.023 2.523"></polygon>
                </g>
                <g id="g1348" transform="translate(95.000000, 276.000000)">
                    <polygon id="path1346" points="0 1.5 1.023 0.477 2.046 1.5 1.023 2.5245"></polygon>
                </g>
                <g id="g1352" transform="translate(129.000000, 279.000000)">
                    <polygon id="path1350" points="0 1.5 1.023 0.4755 2.046 1.5 1.023 2.523"></polygon>
                </g>
                <g id="g1356" transform="translate(33.000000, 235.000000)">
                    <polygon id="path1354" points="0 1.5 1.023 0.477 2.046 1.5 1.023 2.5245"></polygon>
                </g>
                <g id="g1360" transform="translate(150.000000, 179.000000)">
                    <polygon id="path1358" points="0 1.5 1.023 0.477 2.046 1.5 1.023 2.523"></polygon>
                </g>
                <g id="g1364" transform="translate(124.000000, 181.000000)">
                    <polygon id="path1362" points="1.5 3 0.477 1.977 1.5 0.954 2.523 1.977"></polygon>
                </g>
                <g id="g1368" transform="translate(1.000000, 175.000000)">
                    <polygon id="path1366" points="0 1.5 1.023 0.477 2.046 1.5 1.023 2.5245"></polygon>
                </g>
                <g id="g1372" transform="translate(33.000000, 184.000000)">
                    <polygon id="path1370" points="0 1.5 1.023 0.477 2.046 1.5 1.023 2.5245"></polygon>
                </g>
                <g id="g1376" transform="translate(56.000000, 146.000000)">
                    <polygon id="path1374" points="0 1.5 1.023 0.477 2.046 1.5 1.023 2.5245"></polygon>
                </g>
                <g id="g1380" transform="translate(64.000000, 192.000000)">
                    <polygon id="path1378" points="0 1.5 1.023 0.4755 2.046 1.5 1.023 2.523"></polygon>
                </g>
                <g id="g1384" transform="translate(25.000000, 161.000000)">
                    <polygon id="path1382" points="0 1.5 1.023 0.477 2.046 1.5 1.023 2.5245"></polygon>
                </g>
                <g id="g1388" transform="translate(71.000000, 167.000000)">
                    <polygon id="path1386" points="0 1.5 1.023 0.477 2.046 1.5 1.023 2.5245"></polygon>
                </g>
                <g id="g1392" transform="translate(102.000000, 176.000000)">
                    <polygon id="path1390" points="0 1.5 1.023 0.477 2.046 1.5 1.023 2.5245"></polygon>
                </g>
                <g id="g1396" transform="translate(126.000000, 138.000000)">
                    <polygon id="path1394" points="0 1.5 1.023 0.477 2.046 1.5 1.023 2.523"></polygon>
                </g>
                <g id="g1400" transform="translate(134.000000, 205.000000)">
                    <polygon id="path1398" points="0 1.5 1.023 0.477 2.046 1.5 1.023 2.5245"></polygon>
                </g>
                <g id="g1404" transform="translate(95.000000, 153.000000)">
                    <polygon id="path1402" points="0 1.5 1.023 0.477 2.046 1.5 1.023 2.5245"></polygon>
                </g>
                <g id="g1408" transform="translate(86.000000, 244.000000)">
                    <polygon id="path1406" points="0 1.5 1.023 0.4755 2.046 1.5 1.023 2.523"></polygon>
                </g>
                <g id="g1412" transform="translate(118.000000, 253.000000)">
                    <polygon id="path1410" points="0 1.5 1.023 0.4755 2.046 1.5 1.023 2.523"></polygon>
                </g>
                <g id="g1416" transform="translate(147.000000, 216.000000)">
                    <polygon id="path1414" points="0 1.5 1.023 0.4755 2.046 1.5 1.023 2.523"></polygon>
                </g>
                <g id="g1420" transform="translate(149.000000, 261.000000)">
                    <polygon id="path1418" points="1.5 3 0.477 1.9755 1.5 0.954 2.523 1.9755"></polygon>
                </g>
                <g id="g1424" transform="translate(110.000000, 231.000000)">
                    <polygon id="path1422" points="0 1.5 1.023 0.477 2.046 1.5 1.023 2.523"></polygon>
                </g>
                <g id="g1428" transform="translate(92.000000, 114.000000)">
                    <polygon id="path1426" points="0 1.5 1.023 0.477 2.046 1.5 1.023 2.5245"></polygon>
                </g>
                <g id="g1432" transform="translate(145.000000, 113.000000)">
                    <polygon id="path1430" points="1.5 3 0.477 1.977 1.5 0.954 2.523 1.977"></polygon>
                </g>
                <g id="g1436" transform="translate(147.000000, 86.000000)">
                    <polygon id="path1434" points="0 1.5 1.023 0.4755 2.046 1.5 1.023 2.523"></polygon>
                </g>
                <g id="g1440" transform="translate(155.000000, 131.000000)">
                    <polygon id="path1438" points="1.5 3 0.477 1.9755 1.5 0.954 2.523 1.9755"></polygon>
                </g>
                <g id="g1444" transform="translate(116.000000, 101.000000)">
                    <polygon id="path1442" points="0 1.5 1.023 0.477 2.046 1.5 1.023 2.5245"></polygon>
                </g>
                <g id="g1448" transform="translate(4.000000, 107.000000)">
                    <polygon id="path1446" points="0 1.5 1.023 0.4755 2.046 1.5 1.023 2.523"></polygon>
                </g>
                <g id="g1452" transform="translate(36.000000, 116.000000)">
                    <polygon id="path1450" points="0 1.5 1.023 0.4755 2.046 1.5 1.023 2.523"></polygon>
                </g>
                <g id="g1456" transform="translate(60.000000, 78.000000)">
                    <polygon id="path1454" points="0 1.5 1.023 0.477 2.046 1.5 1.023 2.5245"></polygon>
                </g>
                <g id="g1460" transform="translate(68.000000, 124.000000)">
                    <polygon id="path1458" points="0 1.5 1.023 0.477 2.046 1.5 1.023 2.523"></polygon>
                </g>
                <g id="g1464" transform="translate(28.000000, 93.000000)">
                    <polygon id="path1462" points="0 1.5 1.023 0.4755 2.046 1.5 1.023 2.523"></polygon>
                </g>
                <g id="g1468" transform="translate(78.000000, 35.000000)">
                    <polygon id="path1466" points="0 1.5 1.023 0.477 2.046 1.5 1.023 2.5245"></polygon>
                </g>
                <g id="g1472" transform="translate(108.000000, 44.000000)">
                    <polygon id="path1470" points="0 1.5 1.023 0.477 2.046 1.5 1.023 2.5245"></polygon>
                </g>
                <g id="g1476" transform="translate(141.000000, 6.000000)">
                    <polygon id="path1474" points="0 1.5 1.023 0.477 2.046 1.5 1.023 2.5245"></polygon>
                </g>
                <g id="g1480" transform="translate(147.000000, 48.000000)">
                    <polygon id="path1478" points="0 1.5 1.023 0.477 2.046 1.5 1.023 2.5245"></polygon>
                </g>
                <g id="g1484" transform="translate(102.000000, 21.000000)">
                    <polygon id="path1482" points="0 1.5 1.023 0.477 2.046 1.5 1.023 2.5245"></polygon>
                </g>
                <g id="g1488" transform="translate(1.000000, 29.000000)">
                    <polygon id="path1486" points="0 1.5 1.023 0.4755 2.046 1.5 1.023 2.523"></polygon>
                </g>
                <g id="g1492" transform="translate(32.000000, 39.000000)">
                    <polygon id="path1490" points="0 1.5 1.023 0.4755 2.046 1.5 1.023 2.523"></polygon>
                </g>
                <g id="g1496" transform="translate(56.000000, 1.000000)">
                    <polygon id="path1494" points="0 1.5 1.023 0.477 2.046 1.5 1.023 2.5245"></polygon>
                </g>
                <g id="g1500" transform="translate(64.000000, 47.000000)">
                    <polygon id="path1498" points="0 1.5 1.023 0.477 2.046 1.5 1.023 2.523"></polygon>
                </g>
                <g id="g1504" transform="translate(25.000000, 16.000000)">
                    <polygon id="path1502" points="0 1.5 1.023 0.4755 2.046 1.5 1.023 2.523"></polygon>
                </g>
            </g>
            <g id="g1842" transform="translate(96.000000, 258.666662) scale(-1, 1) rotate(-180.000000) translate(-96.000000, -258.666662) translate(49.000000, 220.666662)" fill="url(#linearGradient-3)">
                <g id="g1844" transform="translate(0.000000, 0.666662)">
                    <g id="g1850">
                        <g id="g1852">
                            <path d="M46.9888684,74.9504464 C21.3392368,74.9504464 0.542973684,52.4330357 0.542973684,24.65625 L0.542973684,24.65625 C0.542973684,16.0553571 2.53676316,7.95803571 6.05063158,0.878571429 L6.05063158,0.878571429 L87.9271053,0.878571429 C91.4409737,7.95803571 93.4347632,16.0553571 93.4347632,24.65625 L93.4347632,24.65625 C93.436,52.434375 72.6446842,74.9504464 46.9938158,74.9504464 L46.9938158,74.9504464 C46.9925789,74.9504464 46.9913421,74.9504464 46.9888684,74.9504464" id="path1864"></path>
                        </g>
                    </g>
                </g>
            </g>
            <g id="g1866" transform="translate(76.500000, 281.500000) scale(-1, 1) rotate(-180.000000) translate(-76.500000, -281.500000) translate(17.000000, 265.000000)" fill="url(#linearGradient-4)">
                <g id="g1868" transform="translate(0.000000, 0.000000)">
                    <g id="g1874">
                        <g id="g1876">
                            <path d="M30.6343579,30.4747143 C20.3640316,28.083 11.8098105,19.9414286 0.765357895,20.8937143 L0.765357895,20.8937143 C1.49564211,1.92971429 59.5350737,3.80128571 76.2201263,1.21314286 L76.2201263,1.21314286 C93.9724211,-1.54 102.638126,10.472 118.352389,16.379 L118.352389,16.379 L117.099758,17.952 C101.783832,28.4601429 77.4928,30.5611429 60.4056526,30.5847143 L60.4056526,30.5847143 C54.3053368,30.5925714 47.3770316,31.4552857 40.7493579,31.4552857 L40.7493579,31.4552857 C37.2382316,31.4552857 33.8110316,31.2132857 30.6343579,30.4747143" id="path1886"></path>
                        </g>
                    </g>
                </g>
            </g>
            <g id="g1888" transform="translate(118.000000, 279.500000) scale(-1, 1) rotate(-180.000000) translate(-118.000000, -279.500000) translate(49.000000, 255.000000)" fill="url(#linearGradient-5)">
                <g id="g1890">
                    <g id="g1896">
                        <g id="g1898">
                            <path d="M96.9344324,43.8170645 C83.3246486,38.8159032 71.4491892,30.8873871 58.2123784,25.6522903 L58.2123784,25.6522903 C40.5284865,18.6595161 17.7236757,13.3374839 0.0323243243,1.03690323 L0.0323243243,1.03690323 L137.370919,1.03690323 L137.370919,48.4467742 C134.405784,48.581129 131.448108,48.6649032 128.504108,48.6649032 L128.504108,48.6649032 C117.723946,48.6649032 107.117838,47.556871 96.9344324,43.8170645" id="path1908"></path>
                        </g>
                    </g>
                </g>
            </g>
            <g id="g1910" transform="translate(63.500000, 279.500000) scale(-1, 1) rotate(-180.000000) translate(-63.500000, -279.500000) translate(0.000000, 255.000000)" fill="url(#linearGradient-6)">
                <g id="g1912">
                    <g id="g1918">
                        <g id="g1920">
                            <path d="M0.783166667,1.03690323 L125.904314,1.03690323 C108.186569,13.3374839 85.3477353,18.6595161 67.6374608,25.6522903 L67.6374608,25.6522903 C54.380902,30.8873871 42.4877255,38.8159032 28.8563922,43.8170645 L28.8563922,43.8170645 C19.7771373,47.1474839 10.3592157,48.389871 0.783166667,48.6222258 L0.783166667,48.6222258 L0.783166667,1.03690323 Z" id="path1930"></path>
                        </g>
                    </g>
                </g>
            </g>
            <g id="g1932" transform="translate(86.666665, 160.333332) scale(-1, 1) rotate(-180.000000) translate(-86.666665, -160.333332) translate(70.666665, 132.999999)" fill="url(#linearGradient-7)">
                <g id="g1934">
                    <g id="g1940">
                        <g id="g1942">
                            <polygon id="path1952" points="1.2853333 23.3813327 24.1066661 0.401333323 31.8613325 30.8693326 9.03999977 53.8466653"></polygon>
                        </g>
                    </g>
                </g>
            </g>
            <g id="g1954" transform="translate(104.666664, 140.333332) scale(-1, 1) rotate(-180.000000) translate(-104.666664, -140.333332) translate(78.666665, 123.666666)" fill="url(#linearGradient-8)">
                <g id="g1956">
                    <g id="g1962">
                        <g id="g1964">
                            <polygon id="path1974" points="1.03999997 23.1799994 23.8613327 0.202666662 50.8786654 9.2293331 28.058666 32.2066659"></polygon>
                        </g>
                    </g>
                </g>
            </g>
            <g id="g1976" transform="translate(112.666664, 167.666665) scale(-1, 1) rotate(-180.000000) translate(-112.666664, -167.666665) translate(94.666664, 147.666665)" fill="url(#linearGradient-9)">
                <g id="g1978">
                    <g id="g1984">
                        <g id="g1986">
                            <polygon id="path1996" points="7.86133314 30.8693326 0.106666664 0.401333323 27.1239993 9.4293331 34.8786658 39.895999"></polygon>
                        </g>
                    </g>
                </g>
            </g>
            <g id="g1998" transform="translate(57.333332, 103.000000) scale(-1, 1) rotate(-180.000000) translate(-57.333332, -103.000000) translate(49.333332, 89.000000)" fill="url(#linearGradient-10)">
                <g id="g2000">
                    <g id="g2006">
                        <g id="g2008">
                            <polygon id="path2018" points="0.101333331 11.997333 11.6346664 0.385333324 15.5519996 15.7826663 4.0199999 27.394666"></polygon>
                        </g>
                    </g>
                </g>
            </g>
            <g id="g2020" transform="translate(47.999999, 113.666666) scale(-1, 1) rotate(-180.000000) translate(-47.999999, -113.666666) translate(34.666666, 105.000000)" fill="url(#linearGradient-11)">
                <g id="g2022">
                    <g id="g2028">
                        <g id="g2030">
                            <polygon id="path2040" points="1.11466664 12.769333 12.6466664 1.1573333 26.3013327 5.71866652 14.7679996 17.3306662"></polygon>
                        </g>
                    </g>
                </g>
            </g>
            <g id="g2042" transform="translate(44.666666, 99.666666) scale(-1, 1) rotate(-180.000000) translate(-44.666666, -99.666666) translate(34.666666, 89.000000)" fill="url(#linearGradient-12)">
                <g id="g2044">
                    <g id="g2050">
                        <g id="g2052">
                            <polygon id="path2062" points="5.03333321 16.1653329 1.11466664 0.769333314 14.7679996 5.33066653 18.6866662 20.7279995"></polygon>
                        </g>
                    </g>
                </g>
            </g>
        </g>
    </g>
</svg>