<?xml version="1.0" encoding="UTF-8"?>
<svg width="187px" height="303px" viewBox="0 0 187 303" version="1.1" xmlns="http://www.w3.org/2000/svg" xmlns:xlink="http://www.w3.org/1999/xlink">
    <!-- Generator: Sketch 61.2 (89653) - https://sketch.com -->
    <title>Group 2</title>
    <desc>Created with Sketch.</desc>
    <defs>
        <linearGradient x1="49.9993551%" y1="100.000088%" x2="49.9993495%" y2="0.000114197915%" id="linearGradient-1">
            <stop stop-color="#28525B" offset="0%"></stop>
            <stop stop-color="#28525B" offset="47.070624%"></stop>
            <stop stop-color="#8EE57A" offset="100%"></stop>
        </linearGradient>
        <linearGradient x1="49.9993551%" y1="100.000088%" x2="49.9993495%" y2="0.000114197915%" id="linearGradient-2">
            <stop stop-color="#28525B" offset="0%"></stop>
            <stop stop-color="#28525B" offset="20.0221706%"></stop>
            <stop stop-color="#8EE57A" offset="100%"></stop>
        </linearGradient>
        <linearGradient x1="-0.000170444861%" y1="49.9998024%" x2="99.9999041%" y2="49.9998024%" id="linearGradient-3">
            <stop stop-color="#511B35" offset="0%"></stop>
            <stop stop-color="#511B35" offset="47.070624%"></stop>
            <stop stop-color="#875CDB" offset="100%"></stop>
        </linearGradient>
        <linearGradient x1="47.0051599%" y1="36.6449166%" x2="47.9104179%" y2="57.7096209%" id="linearGradient-4">
            <stop stop-color="#511B35" offset="0%"></stop>
            <stop stop-color="#511B35" offset="47.070624%"></stop>
            <stop stop-color="#875CDB" offset="100%"></stop>
        </linearGradient>
        <linearGradient x1="-15.0720861%" y1="36.3704036%" x2="111.307391%" y2="36.3704036%" id="linearGradient-5">
            <stop stop-color="#511B35" offset="0%"></stop>
            <stop stop-color="#511B35" offset="47.070624%"></stop>
            <stop stop-color="#875CDB" offset="100%"></stop>
        </linearGradient>
        <linearGradient x1="49.9991691%" y1="0.000952034758%" x2="49.9991691%" y2="100.001785%" id="linearGradient-6">
            <stop stop-color="#318053" offset="0%"></stop>
            <stop stop-color="#3514B1" offset="55.33%"></stop>
            <stop stop-color="#C1E57A" offset="92.399924%"></stop>
            <stop stop-color="#C1E57A" offset="100%"></stop>
        </linearGradient>
        <linearGradient x1="49.9976563%" y1="99.9980869%" x2="49.9976563%" y2="-0.000540462981%" id="linearGradient-7">
            <stop stop-color="#318053" offset="0%"></stop>
            <stop stop-color="#3514B1" offset="32.9949%"></stop>
            <stop stop-color="#C1E57A" offset="70.814992%"></stop>
            <stop stop-color="#C1E57A" offset="100%"></stop>
        </linearGradient>
    </defs>
    <g id="Page-1" stroke="none" stroke-width="1" fill="none" fill-rule="evenodd">
        <g id="Group-2" fill-rule="nonzero">
            <g id="g10" transform="translate(93.500000, 150.500000) scale(-1, 1) rotate(-180.000000) translate(-93.500000, -150.500000) ">
                <g id="g12">
                    <g id="g18">
                        <g id="g20">
                            <polygon id="path30" fill="url(#linearGradient-1)" points="186.369182 0.277808779 0.78539998 0.277808779 0.78539998 300.948065 186.369182 300.948065"></polygon>
                            <polygon id="path30" fill="url(#linearGradient-2)" points="157.157291 27.0410881 29.997291 27.0410881 29.997291 300.948065 157.157291 300.948065"></polygon>
                        </g>
                    </g>
                </g>
            </g>
            <g id="g1506" opacity="0.300003" transform="translate(17.000000, 4.000000)" fill="#FFFFFF">
                <g id="g1320" transform="translate(8.000000, 246.000000)">
                    <polygon id="path1318" points="0 1.5 1.023 0.477 2.046 1.5 1.023 2.5245"></polygon>
                </g>
                <g id="g1324" transform="translate(40.000000, 255.000000)">
                    <polygon id="path1322" points="0 1.5 1.023 0.477 2.046 1.5 1.023 2.5245"></polygon>
                </g>
                <g id="g1328" transform="translate(2.000000, 284.000000)">
                    <polygon id="path1326" points="0 1.5 1.023 0.4755 2.046 1.5 1.023 2.523"></polygon>
                </g>
                <g id="g1332" transform="translate(64.000000, 217.000000)">
                    <polygon id="path1330" points="3 1.5 1.977 2.523 0.954 1.5 1.977 0.4755"></polygon>
                </g>
                <g id="g1336" transform="translate(73.000000, 263.000000)">
                    <polygon id="path1334" points="0 1.5 1.023 0.477 2.046 1.5 1.023 2.5245"></polygon>
                </g>
                <g id="g1340" transform="translate(41.000000, 290.000000)">
                    <polygon id="path1338" points="0 1.5 1.023 0.4755 2.046 1.5 1.023 2.523"></polygon>
                </g>
                <g id="g1344" transform="translate(74.000000, 284.000000)">
                    <polygon id="path1342" points="0 1.5 1.023 0.4755 2.046 1.5 1.023 2.523"></polygon>
                </g>
                <g id="g1348" transform="translate(95.000000, 273.000000)">
                    <polygon id="path1346" points="0 1.5 1.023 0.477 2.046 1.5 1.023 2.5245"></polygon>
                </g>
                <g id="g1352" transform="translate(129.000000, 276.000000)">
                    <polygon id="path1350" points="0 1.5 1.023 0.4755 2.046 1.5 1.023 2.523"></polygon>
                </g>
                <g id="g1356" transform="translate(33.000000, 232.000000)">
                    <polygon id="path1354" points="0 1.5 1.023 0.477 2.046 1.5 1.023 2.5245"></polygon>
                </g>
                <g id="g1360" transform="translate(150.000000, 177.000000)">
                    <polygon id="path1358" points="0 1.5 1.023 0.477 2.046 1.5 1.023 2.523"></polygon>
                </g>
                <g id="g1364" transform="translate(124.000000, 180.000000)">
                    <polygon id="path1362" points="1.5 3 0.477 1.977 1.5 0.954 2.523 1.977"></polygon>
                </g>
                <g id="g1368" transform="translate(1.000000, 173.000000)">
                    <polygon id="path1366" points="0 1.5 1.023 0.477 2.046 1.5 1.023 2.5245"></polygon>
                </g>
                <g id="g1372" transform="translate(33.000000, 182.000000)">
                    <polygon id="path1370" points="0 1.5 1.023 0.477 2.046 1.5 1.023 2.5245"></polygon>
                </g>
                <g id="g1376" transform="translate(56.000000, 145.000000)">
                    <polygon id="path1374" points="0 1.5 1.023 0.477 2.046 1.5 1.023 2.5245"></polygon>
                </g>
                <g id="g1380" transform="translate(64.000000, 190.000000)">
                    <polygon id="path1378" points="0 1.5 1.023 0.4755 2.046 1.5 1.023 2.523"></polygon>
                </g>
                <g id="g1384" transform="translate(25.000000, 160.000000)">
                    <polygon id="path1382" points="0 1.5 1.023 0.477 2.046 1.5 1.023 2.5245"></polygon>
                </g>
                <g id="g1388" transform="translate(71.000000, 165.000000)">
                    <polygon id="path1386" points="0 1.5 1.023 0.477 2.046 1.5 1.023 2.5245"></polygon>
                </g>
                <g id="g1392" transform="translate(102.000000, 174.000000)">
                    <polygon id="path1390" points="0 1.5 1.023 0.477 2.046 1.5 1.023 2.5245"></polygon>
                </g>
                <g id="g1396" transform="translate(126.000000, 137.000000)">
                    <polygon id="path1394" points="0 1.5 1.023 0.477 2.046 1.5 1.023 2.523"></polygon>
                </g>
                <g id="g1400" transform="translate(134.000000, 203.000000)">
                    <polygon id="path1398" points="0 1.5 1.023 0.477 2.046 1.5 1.023 2.5245"></polygon>
                </g>
                <g id="g1404" transform="translate(95.000000, 152.000000)">
                    <polygon id="path1402" points="0 1.5 1.023 0.477 2.046 1.5 1.023 2.5245"></polygon>
                </g>
                <g id="g1408" transform="translate(86.000000, 241.000000)">
                    <polygon id="path1406" points="0 1.5 1.023 0.4755 2.046 1.5 1.023 2.523"></polygon>
                </g>
                <g id="g1412" transform="translate(118.000000, 251.000000)">
                    <polygon id="path1410" points="0 1.5 1.023 0.4755 2.046 1.5 1.023 2.523"></polygon>
                </g>
                <g id="g1416" transform="translate(147.000000, 213.000000)">
                    <polygon id="path1414" points="0 1.5 1.023 0.4755 2.046 1.5 1.023 2.523"></polygon>
                </g>
                <g id="g1420" transform="translate(149.000000, 258.000000)">
                    <polygon id="path1418" points="1.5 3 0.477 1.9755 1.5 0.954 2.523 1.9755"></polygon>
                </g>
                <g id="g1424" transform="translate(110.000000, 228.000000)">
                    <polygon id="path1422" points="0 1.5 1.023 0.477 2.046 1.5 1.023 2.523"></polygon>
                </g>
                <g id="g1428" transform="translate(92.000000, 113.000000)">
                    <polygon id="path1426" points="0 1.5 1.023 0.477 2.046 1.5 1.023 2.5245"></polygon>
                </g>
                <g id="g1432" transform="translate(145.000000, 112.000000)">
                    <polygon id="path1430" points="1.5 3 0.477 1.977 1.5 0.954 2.523 1.977"></polygon>
                </g>
                <g id="g1436" transform="translate(147.000000, 85.000000)">
                    <polygon id="path1434" points="0 1.5 1.023 0.4755 2.046 1.5 1.023 2.523"></polygon>
                </g>
                <g id="g1440" transform="translate(155.000000, 130.000000)">
                    <polygon id="path1438" points="1.5 3 0.477 1.9755 1.5 0.954 2.523 1.9755"></polygon>
                </g>
                <g id="g1444" transform="translate(116.000000, 100.000000)">
                    <polygon id="path1442" points="0 1.5 1.023 0.477 2.046 1.5 1.023 2.5245"></polygon>
                </g>
                <g id="g1448" transform="translate(4.000000, 105.000000)">
                    <polygon id="path1446" points="0 1.5 1.023 0.4755 2.046 1.5 1.023 2.523"></polygon>
                </g>
                <g id="g1452" transform="translate(36.000000, 115.000000)">
                    <polygon id="path1450" points="0 1.5 1.023 0.4755 2.046 1.5 1.023 2.523"></polygon>
                </g>
                <g id="g1456" transform="translate(60.000000, 77.000000)">
                    <polygon id="path1454" points="0 1.5 1.023 0.477 2.046 1.5 1.023 2.5245"></polygon>
                </g>
                <g id="g1460" transform="translate(68.000000, 123.000000)">
                    <polygon id="path1458" points="0 1.5 1.023 0.477 2.046 1.5 1.023 2.523"></polygon>
                </g>
                <g id="g1464" transform="translate(28.000000, 92.000000)">
                    <polygon id="path1462" points="0 1.5 1.023 0.4755 2.046 1.5 1.023 2.523"></polygon>
                </g>
                <g id="g1468" transform="translate(78.000000, 34.000000)">
                    <polygon id="path1466" points="0 1.5 1.023 0.477 2.046 1.5 1.023 2.5245"></polygon>
                </g>
                <g id="g1472" transform="translate(108.000000, 44.000000)">
                    <polygon id="path1470" points="0 1.5 1.023 0.477 2.046 1.5 1.023 2.5245"></polygon>
                </g>
                <g id="g1476" transform="translate(141.000000, 6.000000)">
                    <polygon id="path1474" points="0 1.5 1.023 0.477 2.046 1.5 1.023 2.5245"></polygon>
                </g>
                <g id="g1480" transform="translate(147.000000, 48.000000)">
                    <polygon id="path1478" points="0 1.5 1.023 0.477 2.046 1.5 1.023 2.5245"></polygon>
                </g>
                <g id="g1484" transform="translate(102.000000, 21.000000)">
                    <polygon id="path1482" points="0 1.5 1.023 0.477 2.046 1.5 1.023 2.5245"></polygon>
                </g>
                <g id="g1488" transform="translate(1.000000, 29.000000)">
                    <polygon id="path1486" points="0 1.5 1.023 0.4755 2.046 1.5 1.023 2.523"></polygon>
                </g>
                <g id="g1492" transform="translate(32.000000, 38.000000)">
                    <polygon id="path1490" points="0 1.5 1.023 0.4755 2.046 1.5 1.023 2.523"></polygon>
                </g>
                <g id="g1496" transform="translate(56.000000, 1.000000)">
                    <polygon id="path1494" points="0 1.5 1.023 0.477 2.046 1.5 1.023 2.5245"></polygon>
                </g>
                <g id="g1500" transform="translate(64.000000, 46.000000)">
                    <polygon id="path1498" points="0 1.5 1.023 0.477 2.046 1.5 1.023 2.523"></polygon>
                </g>
                <g id="g1504" transform="translate(25.000000, 16.000000)">
                    <polygon id="path1502" points="0 1.5 1.023 0.4755 2.046 1.5 1.023 2.523"></polygon>
                </g>
            </g>
            <g id="g708" transform="translate(76.500000, 281.000000) scale(-1, 1) rotate(-180.000000) translate(-76.500000, -281.000000) translate(17.000000, 265.000000)" fill="url(#linearGradient-3)">
                <g id="g710" transform="translate(0.000000, 0.000000)">
                    <g id="g716">
                        <g id="g718">
                            <path d="M30.6343579,30.9728 C20.3640316,28.5376 11.8098105,20.2464 0.765357895,21.2176 L0.765357895,21.2176 C1.49564211,1.9104 59.5350737,3.8144 76.2201263,1.1792 L76.2201263,1.1792 C93.9724211,-1.624 102.638126,10.6064 118.352389,16.6224 L118.352389,16.6224 L117.099758,18.2224 C101.783832,28.9216 77.4928,31.0608 60.4056526,31.0848 L60.4056526,31.0848 C54.3053368,31.0928 47.3770316,31.9712 40.7493579,31.9712 L40.7493579,31.9712 C37.2382316,31.9712 33.8110316,31.7248 30.6343579,30.9728" id="path728"></path>
                        </g>
                    </g>
                </g>
            </g>
            <g id="g730" transform="translate(118.000000, 279.000000) scale(-1, 1) rotate(-180.000000) translate(-118.000000, -279.000000) translate(49.000000, 255.000000)" fill="url(#linearGradient-4)">
                <g id="g732">
                    <g id="g738">
                        <g id="g740">
                            <path d="M96.9344324,42.8686452 C83.3246486,37.9695484 71.4491892,30.2028387 58.2123784,25.0745806 L58.2123784,25.0745806 C40.5284865,18.2229677 17.7236757,13.0095484 0.0323243243,0.961548387 L0.0323243243,0.961548387 L137.370919,0.961548387 L137.370919,47.403871 C134.405784,47.5354839 131.448108,47.616 128.504108,47.616 L128.504108,47.616 C117.723946,47.616 107.117838,46.532129 96.9344324,42.8686452" id="path750"></path>
                        </g>
                    </g>
                </g>
            </g>
            <g id="g752" transform="translate(63.500000, 279.000000) scale(-1, 1) rotate(-180.000000) translate(-63.500000, -279.000000) translate(0.000000, 255.000000)" fill="url(#linearGradient-5)">
                <g id="g754" transform="translate(0.000000, -0.000000)">
                    <g id="g760">
                        <g id="g762">
                            <path d="M0.783166667,0.961548387 L125.904314,0.961548387 C108.186569,13.0095484 85.3477353,18.2229677 67.6374608,25.0745806 L67.6374608,25.0745806 C54.380902,30.2028387 42.4877255,37.9695484 28.8563922,42.8686452 L28.8563922,42.8686452 C19.7771373,46.1295484 10.3592157,47.348129 0.783166667,47.5757419 L0.783166667,47.5757419 L0.783166667,0.961548387 Z" id="path772"></path>
                        </g>
                    </g>
                </g>
            </g>
            <g id="g798" transform="translate(95.999998, 182.000002) scale(-1, 1) rotate(-180.000000) translate(-95.999998, -182.000002) translate(64.999998, 151.000002)" fill="url(#linearGradient-6)">
                <g id="g800" transform="translate(0.000000, -0.000000)">
                    <g id="g806" transform="translate(0.000000, -0.000000)">
                        <g id="g808" transform="translate(0.000000, -0.000000)">
                            <path d="M31.0010747,62.0000021 C13.8794933,62.0000021 1.50000005e-06,48.1202701 1.50000005e-06,31.0005387 L1.50000005e-06,31.0005387 C1.50000005e-06,13.8786609 13.8794933,-0.0010711028 31.0010747,2.1000227e-06 L31.0010747,2.1000227e-06 C48.1205097,-0.0010711028 62.0010747,13.8786609 62.0000015,31.0005387 L62.0000015,31.0005387 C62.0010747,48.1202701 48.1215829,62.0000021 31.0032211,62.0000021 L31.0032211,62.0000021 C31.0021479,62.0000021 31.0021479,62.0000021 31.0010747,62.0000021" id="path820"></path>
                        </g>
                    </g>
                </g>
            </g>
            <g id="g924" transform="translate(96.166665, 118.000004) scale(-1, 1) rotate(-180.000000) translate(-96.166665, -118.000004) translate(72.666665, 95.000004)" fill="url(#linearGradient-7)">
                <g id="g926" transform="translate(0.000000, -0.000000)">
                    <g id="g932" transform="translate(0.000000, -0.000000)">
                        <g id="g934" transform="translate(0.000000, -0.000000)">
                            <path d="M0.3333351,23.0000036 C0.3333351,10.2976409 10.6312186,3.60003162e-06 23.3338851,3.60003162e-06 L23.3338851,3.60003162e-06 C36.0354516,3.60003162e-06 46.3344352,10.2976409 46.3333351,23.0000036 L46.3333351,23.0000036 C46.3344352,35.7023663 36.0354516,46.0000036 23.3338851,46.0000036 L23.3338851,46.0000036 C10.6312186,46.0000036 0.332235016,35.7023663 0.3333351,23.0000036" id="path946"></path>
                        </g>
                    </g>
                </g>
            </g>
        </g>
    </g>
</svg>