<?xml version="1.0" encoding="UTF-8"?>
<svg width="185px" height="303px" viewBox="0 0 185 303" version="1.1" xmlns="http://www.w3.org/2000/svg" xmlns:xlink="http://www.w3.org/1999/xlink">
    <!-- Generator: Sketch 61.2 (89653) - https://sketch.com -->
    <title>Group 6</title>
    <desc>Created with Sketch.</desc>
    <defs>
        <linearGradient x1="49.9999207%" y1="82.8882663%" x2="49.9999207%" y2="10.7592884%" id="linearGradient-1">
            <stop stop-color="#41274C" offset="0%"></stop>
            <stop stop-color="#41274C" offset="3.49488%"></stop>
            <stop stop-color="#7A72D2" offset="53.4211%"></stop>
            <stop stop-color="#FE8C9E" offset="98.974145%"></stop>
            <stop stop-color="#FE8C9E" offset="100%"></stop>
        </linearGradient>
        <linearGradient x1="49.9998939%" y1="97.3126267%" x2="49.9998939%" y2="29.7532845%" id="linearGradient-2">
            <stop stop-color="#41274C" offset="0%"></stop>
            <stop stop-color="#41274C" offset="3.49488%"></stop>
            <stop stop-color="#7A72D2" offset="53.4211%"></stop>
            <stop stop-color="#FE8C9E" offset="98.974145%"></stop>
            <stop stop-color="#FE8C9E" offset="100%"></stop>
        </linearGradient>
        <polygon id="path-3" points="55.726665 97.3959976 177.086662 97.3959976 177.086662 0 55.726665 0"></polygon>
        <path d="M0.726666648,52.9279987 C0.726666648,52.9279987 8.24133313,52.5626654 8.82533311,51.8279987 C9.40799976,51.0933321 10.8639997,49.0746654 12.321333,50.3599987 C13.7786663,51.6439987 14.653333,51.4346654 14.653333,51.4346654 C14.653333,51.4346654 15.2359996,52.9279987 16.1106663,52.9279987 C16.9853329,52.9279987 17.5679996,53.4786653 18.4426662,53.8466653 C19.3159995,54.213332 21.3346661,53.8466653 21.3346661,53.8466653 C21.3346661,53.8466653 22.8133328,54.7639986 23.8333327,54.7639986 C24.854666,54.7639986 26.1653327,54.397332 27.3319993,54.7639986 C28.4973326,55.1319986 29.8079993,55.1319986 30.3906659,56.4159986 C30.9733326,57.6999986 30.5373326,58.0826652 31.5573325,58.9026652 C32.5773325,59.7199985 34.1799991,58.9146652 34.7626658,59.8679985 C35.3453324,60.8213318 36.6573324,61.0053318 37.0946657,60.8213318 C37.5319991,60.6386652 42.0493323,60.8853318 42.0493323,60.8853318 C42.0493323,60.8853318 42.6319989,62.1053318 42.7773323,62.6559984 C42.9226656,63.2066651 40.7373323,63.2053318 42.7773323,65.042665 C44.8173322,66.8799983 47.1493322,68.8973316 47.5866655,69.2639983 C48.0239988,69.6319983 46.8586655,69.8146649 48.7519988,71.6493315 C50.6466654,73.4853315 51.6666654,75.1386648 51.957332,75.6893314 C52.249332,76.2386648 53.561332,78.0746647 53.561332,78.0746647 C53.561332,78.0746647 55.7466653,78.991998 56.0386653,78.0746647 C56.3293319,77.1559981 58.9519985,74.7706648 58.9519985,74.7706648 C58.9519985,74.7706648 62.7413318,77.0546647 63.4706651,78.4813314 C64.1986651,79.9106647 64.926665,80.8266646 65.946665,82.1119979 C66.9679983,83.3973312 69.1533316,85.2319979 69.2986649,86.6999978 C69.4439983,88.1693311 69.5906649,88.5359978 70.0279982,89.0866644 C70.4653316,89.6386644 72.0679982,92.2066644 73.0866648,93.125331 C74.1079981,94.0426643 75.7106648,98.8146642 78.0426647,96.9786642 C80.3733313,95.1426643 81.247998,95.6946643 83.1426646,93.6759977 C85.0359979,91.6559977 86.7853312,90.5546644 86.9306645,90.0039977 C87.0773312,89.4546644 87.8053311,88.1693311 88.0973311,87.4346645 C88.3879978,86.6999978 88.9719978,85.5986645 90.5746644,84.6826645 C92.177331,83.7639979 92.613331,85.5986645 93.7799977,82.4786646 C94.945331,79.359998 98.7346642,74.0346648 98.8799975,73.6679982 C99.0266642,73.3026648 99.7546642,72.1999982 99.7546642,71.0999982 C99.7546642,69.9986649 99.7546642,66.8799983 100.337331,66.8799983 C100.919997,66.8799983 102.814664,65.046665 103.689331,66.8799983 C104.562664,68.7133316 105.582664,71.0999982 105.582664,71.0999982 C105.582664,71.0999982 105.729331,72.9333315 106.311997,73.6679982 C106.894664,74.4039981 108.934664,77.5239981 109.081331,78.0746647 C109.226667,78.6253314 108.935997,78.807998 110.101331,80.459998 C111.266664,82.1119979 113.59733,84.8653312 113.59733,84.8653312 L114.326664,86.5173312 L116.22133,88.5359978 L118.114664,89.6386644 L120.883997,92.0239977 L121.758664,94.7759976 L122.08533,95.8773309 L122.078664,0 L0.726666648,0 L0.726666648,52.9279987 Z" id="path-5"></path>
        <polygon id="path-7" points="0 87379.9978 87379.9978 87379.9978 87379.9978 0 0 0"></polygon>
        <linearGradient x1="50.0004724%" y1="32.0754068%" x2="50.0004724%" y2="81.5041203%" id="linearGradient-9">
            <stop stop-color="#FE8C9E" offset="0%"></stop>
            <stop stop-color="#FE8C9E" offset="1.164954%"></stop>
            <stop stop-color="#D75F8C" offset="52.8947%"></stop>
            <stop stop-color="#41274C" offset="96.5051%"></stop>
            <stop stop-color="#41274C" offset="100%"></stop>
        </linearGradient>
        <polygon id="path-10" points="-7.87866669 117.442664 101.714664 117.442664 101.714664 0.155999996 -7.87866669 0.155999996"></polygon>
        <path d="M109.714664,51.5559987 C109.714664,51.5559987 102.927997,63.4533317 102.402664,62.5693318 C101.875997,61.6853318 100.559997,59.2519985 99.2439975,60.8013318 C97.9279975,62.3479984 97.1386642,62.0959984 97.1386642,62.0959984 C97.1386642,62.0959984 96.6119976,63.8946651 95.8226642,63.8946651 C95.0333309,63.8946651 94.5066643,64.5573317 93.717331,64.9999984 C92.9279977,65.4413317 91.105331,64.9999984 91.105331,64.9999984 C91.105331,64.9999984 89.7693311,66.1053317 88.8479978,66.1053317 C87.9266644,66.1053317 86.7426645,65.662665 85.6906645,66.1053317 C84.6373312,66.546665 83.4519979,66.546665 82.9266646,68.0933316 C82.3999979,69.6413316 82.7946646,70.1013316 81.8733313,71.0866649 C80.951998,72.0733315 79.5053313,71.1026649 78.9786647,72.2506649 C78.451998,73.3986648 77.267998,73.6199982 76.8733314,73.3986648 C76.4786647,73.1786648 72.3986648,73.4746648 72.3986648,73.4746648 C72.3986648,73.4746648 71.8719982,74.9466648 71.7413315,75.6093314 C71.6093315,76.2719981 73.5826648,76.2706648 71.7413315,78.4826647 C69.8986649,80.6946646 67.7933316,83.1239979 67.398665,83.5666646 C67.002665,84.0079979 68.0559983,84.2293312 66.3453316,86.4399978 C64.634665,88.6493311 63.7133317,90.6386644 63.4506651,91.3026644 C63.1879984,91.965331 62.0026651,94.1759976 62.0026651,94.1759976 C62.0026651,94.1759976 60.0293318,95.281331 59.7653318,94.1759976 C59.5026652,93.0706643 57.1346652,90.1959977 57.1346652,90.1959977 C57.1346652,90.1959977 53.713332,92.9479977 53.0546653,94.6666643 C52.3959987,96.3853309 51.7386653,97.4906642 50.817332,99.0373309 C49.8959987,100.585331 47.9226654,102.795997 47.7906654,104.563997 C47.6599988,106.331997 47.5279988,106.774664 47.1333321,107.437331 C46.7386655,108.099997 45.2906655,111.194664 44.3693322,112.299997 C43.4479989,113.40533 41.9999989,119.151997 39.8946656,116.94133 C37.7893324,114.731997 36.999999,115.394664 35.2893324,112.963997 C33.5786658,110.530664 31.9999992,109.205331 31.8679992,108.542664 C31.7359992,107.878664 31.0786659,106.331997 30.8146659,105.447997 C30.5519992,104.563997 30.0266659,103.238664 28.5786659,102.133331 C27.130666,101.027997 26.7359993,103.238664 25.682666,99.4799975 C24.630666,95.7226643 21.2093328,89.3106644 21.0773328,88.8693311 C20.9453328,88.4279978 20.2879995,87.1026645 20.2879995,85.7759979 C20.2879995,84.4506646 20.2879995,80.6946646 19.7613328,80.6946646 C19.2346662,80.6946646 17.5239995,78.4866647 16.7346662,80.6946646 C15.9453329,82.9039979 15.0239996,85.7759979 15.0239996,85.7759979 C15.0239996,85.7759979 14.8919996,87.9839978 14.3653329,88.8693311 C13.8399996,89.7546644 11.997333,93.513331 11.865333,94.1759976 C11.7346663,94.8386643 11.997333,95.0599976 10.9439997,97.0493309 C9.89199973,99.0373309 7.78666645,102.354664 7.78666645,102.354664 L7.1279998,104.342664 L5.41733317,106.774664 L3.70666655,108.099997 L1.20666661,110.973331 L0.417333298,114.28933 L0.121333305,115.615997 L0.127999972,0.154666663 L109.714664,0.154666663 L109.714664,51.5559987 Z" id="path-12"></path>
        <polygon id="path-14" points="0 87379.9978 87379.9978 87379.9978 87379.9978 0 0 0"></polygon>
        <linearGradient x1="49.9999757%" y1="37.3309449%" x2="49.9999757%" y2="91.9892689%" id="linearGradient-16">
            <stop stop-color="#FE8C9E" offset="0%"></stop>
            <stop stop-color="#FE8C9E" offset="1.164954%"></stop>
            <stop stop-color="#D75F8C" offset="52.8947%"></stop>
            <stop stop-color="#41274C" offset="96.5051%"></stop>
            <stop stop-color="#41274C" offset="100%"></stop>
        </linearGradient>
        <radialGradient cx="35.2880527%" cy="65.655196%" fx="35.2880527%" fy="65.655196%" r="68.112823%" id="radialGradient-17">
            <stop stop-color="#FE8C9E" offset="0%"></stop>
            <stop stop-color="#FE8C9E" offset="1.025855%"></stop>
            <stop stop-color="#7A72D2" offset="46.5789%"></stop>
            <stop stop-color="#41274C" offset="96.5051%"></stop>
            <stop stop-color="#41274C" offset="100%"></stop>
        </radialGradient>
        <path d="M0.785333314,10.6999997 C0.785333314,4.92133321 5.47066653,0.234666661 11.2506664,0.234666661 L11.2506664,0.234666661 C17.0293329,0.234666661 21.7146661,4.92133321 21.7146661,10.6999997 L21.7146661,10.6999997 C21.7146661,16.4799996 17.0293329,21.1653328 11.2506664,21.1653328 L11.2506664,21.1653328 C5.47066653,21.1653328 0.785333314,16.4799996 0.785333314,10.6999997" id="path-18"></path>
        <polygon id="path-20" points="0 87379.9978 87379.9978 87379.9978 87379.9978 0 0 0"></polygon>
        <radialGradient cx="35.2885902%" cy="65.6549242%" fx="35.2885902%" fy="65.6549242%" r="68.1121072%" gradientTransform="translate(0.352886,0.656549),scale(1.000000,0.999936),rotate(-50.988146),translate(-0.352886,-0.656549)" id="radialGradient-22">
            <stop stop-color="#FE8C9E" offset="0%"></stop>
            <stop stop-color="#FE8C9E" offset="1.164954%"></stop>
            <stop stop-color="#D75F8C" offset="52.8947%"></stop>
            <stop stop-color="#41274C" offset="96.5051%"></stop>
            <stop stop-color="#41274C" offset="100%"></stop>
        </radialGradient>
        <path d="M0.0159999996,8.11733313 C0.0159999996,4.12266656 3.25599992,0.883999978 7.25066649,0.883999978 L7.25066649,0.883999978 C11.2453331,0.883999978 14.4826663,4.12266656 14.4826663,8.11733313 L14.4826663,8.11733313 C14.4826663,12.1119997 11.2453331,15.3506663 7.25066649,15.3506663 L7.25066649,15.3506663 C3.25599992,15.3506663 0.0159999996,12.1119997 0.0159999996,8.11733313" id="path-23"></path>
        <polygon id="path-25" points="0 87379.9978 87379.9978 87379.9978 87379.9978 0 0 0"></polygon>
        <radialGradient cx="35.2940092%" cy="65.6519816%" fx="35.2940092%" fy="65.6519816%" r="68.1078266%" id="radialGradient-27">
            <stop stop-color="#FE8C9E" offset="0%"></stop>
            <stop stop-color="#FE8C9E" offset="1.164954%"></stop>
            <stop stop-color="#D75F8C" offset="52.8947%"></stop>
            <stop stop-color="#41274C" offset="96.5051%"></stop>
            <stop stop-color="#41274C" offset="100%"></stop>
        </radialGradient>
        <path d="M1.10399997,4.06266657 C1.10399997,2.13999995 2.66133327,0.582666652 4.58399989,0.582666652 L4.58399989,0.582666652 C6.50533317,0.582666652 8.06266647,2.13999995 8.06266647,4.06266657 L8.06266647,4.06266657 C8.06266647,5.98399985 6.50533317,7.54133314 4.58399989,7.54133314 L4.58399989,7.54133314 C2.66133327,7.54133314 1.10399997,5.98399985 1.10399997,4.06266657" id="path-28"></path>
        <polygon id="path-30" points="0 87379.9978 87379.9978 87379.9978 87379.9978 0 0 0"></polygon>
        <radialGradient cx="35.287603%" cy="65.657214%" fx="35.287603%" fy="65.657214%" r="68.1130167%" id="radialGradient-32">
            <stop stop-color="#FE8C9E" offset="0%"></stop>
            <stop stop-color="#FE8C9E" offset="1.164954%"></stop>
            <stop stop-color="#D75F8C" offset="52.8947%"></stop>
            <stop stop-color="#41274C" offset="96.5051%"></stop>
            <stop stop-color="#41274C" offset="100%"></stop>
        </radialGradient>
        <path d="M1.10399997,3.64933324 C1.10399997,1.72799996 2.66133327,0.170666662 4.58399989,0.170666662 L4.58399989,0.170666662 C6.50533317,0.170666662 8.06266647,1.72799996 8.06266647,3.64933324 L8.06266647,3.64933324 C8.06266647,5.57199986 6.50533317,7.12799982 4.58399989,7.12799982 L4.58399989,7.12799982 C2.66133327,7.12799982 1.10399997,5.57199986 1.10399997,3.64933324" id="path-33"></path>
        <polygon id="path-35" points="0 87379.9978 87379.9978 87379.9978 87379.9978 0 0 0"></polygon>
        <radialGradient cx="35.287603%" cy="65.6657723%" fx="35.287603%" fy="65.6657723%" r="68.1260701%" gradientTransform="translate(0.352876,0.656658),scale(0.999808,1.000000),rotate(-50.988146),translate(-0.352876,-0.656658)" id="radialGradient-37">
            <stop stop-color="#FE8C9E" offset="0%"></stop>
            <stop stop-color="#FE8C9E" offset="1.164954%"></stop>
            <stop stop-color="#D75F8C" offset="52.8947%"></stop>
            <stop stop-color="#41274C" offset="96.5051%"></stop>
            <stop stop-color="#41274C" offset="100%"></stop>
        </radialGradient>
        <linearGradient x1="50.0002014%" y1="82.8881261%" x2="50.0002014%" y2="-20.4991642%" id="linearGradient-38">
            <stop stop-color="#41274C" offset="0%"></stop>
            <stop stop-color="#41274C" offset="3.49488%"></stop>
            <stop stop-color="#7A72D2" offset="53.4211%"></stop>
            <stop stop-color="#FE8C9E" offset="98.974145%"></stop>
            <stop stop-color="#FE8C9E" offset="100%"></stop>
        </linearGradient>
    </defs>
    <g id="Page-1" stroke="none" stroke-width="1" fill="none" fill-rule="evenodd">
        <g id="Group-6">
            <g id="g90" transform="translate(92.500000, 151.499992) scale(-1, 1) rotate(-180.000000) translate(-92.500000, -151.499992) translate(0.000000, -0.000008)" fill="url(#linearGradient-1)" fill-rule="nonzero">
                <g id="g92" transform="translate(0.000000, -0.000008)">
                    <g id="g98">
                        <g id="g100" transform="translate(-0.000000, 0.000000)">
                            <polygon id="path114" points="185 0 4.54747351e-13 0 4.54747351e-13 303 185 303"></polygon>
                        </g>
                    </g>
                </g>
            </g>
            <g id="g116" transform="translate(92.499999, 164.833333) scale(-1, 1) rotate(-180.000000) translate(-92.499999, -164.833333) translate(22.999999, 27.333333)" fill="url(#linearGradient-2)" fill-rule="nonzero">
                <g id="g118" transform="translate(0.000001, 0.333333)">
                    <g id="g124" transform="translate(-0.000000, 0.000000)">
                        <g id="g126" transform="translate(-0.000000, 0.000000)">
                            <polygon id="path140" points="138.749333 0.155 0.553333333 0.155 0.553333333 273.557179 138.749333 273.557179"></polygon>
                        </g>
                    </g>
                </g>
            </g>
            <g id="g144" transform="translate(97.000000, 155.499992) scale(-1, 1) rotate(-180.000000) translate(-97.000000, -155.499992) translate(8.000000, 7.999992)">
                <g id="g346" opacity="0.300003" transform="translate(0.333333, 43.999999)" fill="#FFFFFF" fill-rule="nonzero">
                    <g id="g160" transform="translate(8.832666, 210.019461)">
                        <polygon id="path158" points="0 1.3333333 0.909333311 0.422666656 1.81866662 1.3333333 0.909333311 2.24266661"></polygon>
                    </g>
                    <g id="g164" transform="translate(42.565732, 217.928395)">
                        <polygon id="path162" points="0 1.3333333 0.909333311 0.422666656 1.81866662 1.3333333 0.909333311 2.24266661"></polygon>
                    </g>
                    <g id="g168" transform="translate(1.895200, 243.207061)">
                        <polygon id="path166" points="0 1.3333333 0.909333311 0.423999989 1.81866662 1.3333333 0.909333311 2.24266661"></polygon>
                    </g>
                    <g id="g172" transform="translate(67.410132, 185.819062)">
                        <polygon id="path170" points="2.6666666 1.3333333 1.75733329 2.24399994 0.847999979 1.3333333 1.75733329 0.423999989"></polygon>
                    </g>
                    <g id="g176" transform="translate(77.271465, 224.792928)">
                        <polygon id="path174" points="0 1.3333333 0.909333311 0.422666656 1.81866662 1.3333333 0.909333311 2.24266661"></polygon>
                    </g>
                    <g id="g180" transform="translate(44.051466, 247.819060)">
                        <polygon id="path178" points="0 1.3333333 0.909333311 0.423999989 1.81866662 1.3333333 0.909333311 2.24399994"></polygon>
                    </g>
                    <g id="g184" transform="translate(78.756531, 243.207061)">
                        <polygon id="path182" points="0 1.3333333 0.909333311 0.423999989 1.81866662 1.3333333 0.909333311 2.24266661"></polygon>
                    </g>
                    <g id="g188" transform="translate(101.381464, 233.657594)">
                        <polygon id="path186" points="0 1.3333333 0.909333311 0.422666656 1.81866662 1.3333333 0.909333311 2.24266661"></polygon>
                    </g>
                    <g id="g192" transform="translate(137.302130, 236.248661)">
                        <polygon id="path190" points="0 1.3333333 0.909333311 0.423999989 1.81866662 1.3333333 0.909333311 2.24399994"></polygon>
                    </g>
                    <g id="g196" transform="translate(34.874932, 198.726528)">
                        <polygon id="path194" points="0 1.3333333 0.909333311 0.422666656 1.81866662 1.3333333 0.909333311 2.24266661"></polygon>
                    </g>
                    <g id="g200" transform="translate(160.951863, 151.703063)">
                        <polygon id="path198" points="0 1.3333333 0.909333311 0.423999989 1.81866662 1.3333333 0.909333311 2.24399994"></polygon>
                    </g>
                    <g id="g204" transform="translate(132.753197, 153.544263)">
                        <polygon id="path202" points="1.3333333 2.6666666 0.423999989 1.75599996 1.3333333 0.847999979 2.24266661 1.75599996"></polygon>
                    </g>
                    <g id="g208" transform="translate(0.655600, 147.955730)">
                        <polygon id="path206" points="0 1.3333333 0.909333311 0.422666656 1.81866662 1.3333333 0.909333311 2.24266661"></polygon>
                    </g>
                    <g id="g212" transform="translate(34.388666, 155.864529)">
                        <polygon id="path210" points="0 1.3333333 0.909333311 0.422666656 1.81866662 1.3333333 0.909333311 2.24266661"></polygon>
                    </g>
                    <g id="g216" transform="translate(60.080665, 123.756530)">
                        <polygon id="path214" points="0 1.3333333 0.909333311 0.422666656 1.81866662 1.3333333 0.909333311 2.24266661"></polygon>
                    </g>
                    <g id="g220" transform="translate(69.093732, 162.729196)">
                        <polygon id="path218" points="0 1.3333333 0.909333311 0.423999989 1.81866662 1.3333333 0.909333311 2.24399994"></polygon>
                    </g>
                    <g id="g224" transform="translate(26.697199, 136.662797)">
                        <polygon id="path222" points="0 1.3333333 0.909333311 0.422666656 1.81866662 1.3333333 0.909333311 2.24266661"></polygon>
                    </g>
                    <g id="g228" transform="translate(75.339865, 141.113330)">
                        <polygon id="path226" points="0 1.3333333 0.909333311 0.422666656 1.81866662 1.3333333 0.909333311 2.24266661"></polygon>
                    </g>
                    <g id="g232" transform="translate(109.072264, 149.022130)">
                        <polygon id="path230" points="0 1.3333333 0.909333311 0.422666656 1.81866662 1.3333333 0.909333311 2.24266661"></polygon>
                    </g>
                    <g id="g236" transform="translate(134.764930, 116.912797)">
                        <polygon id="path234" points="0 1.3333333 0.909333311 0.423999989 1.81866662 1.3333333 0.909333311 2.24399994"></polygon>
                    </g>
                    <g id="g240" transform="translate(143.777996, 173.417996)">
                        <polygon id="path238" points="0 1.3333333 0.909333311 0.422666656 1.81866662 1.3333333 0.909333311 2.24266661"></polygon>
                    </g>
                    <g id="g244" transform="translate(101.381464, 129.820263)">
                        <polygon id="path242" points="0 1.3333333 0.909333311 0.422666656 1.81866662 1.3333333 0.909333311 2.24266661"></polygon>
                    </g>
                    <g id="g248" transform="translate(91.471331, 206.434928)">
                        <polygon id="path246" points="0 1.3333333 0.909333311 0.423999989 1.81866662 1.3333333 0.909333311 2.24399994"></polygon>
                    </g>
                    <g id="g252" transform="translate(125.204397, 214.343728)">
                        <polygon id="path250" points="0 1.3333333 0.909333311 0.423999989 1.81866662 1.3333333 0.909333311 2.24399994"></polygon>
                    </g>
                    <g id="g256" transform="translate(156.998663, 182.549462)">
                        <polygon id="path254" points="0 1.3333333 0.909333311 0.423999989 1.81866662 1.3333333 0.909333311 2.24399994"></polygon>
                    </g>
                    <g id="g260" transform="translate(159.485729, 220.785194)">
                        <polygon id="path258" points="1.3333333 2.6666666 0.423999989 1.75733329 1.3333333 0.847999979 2.24266661 1.75733329"></polygon>
                    </g>
                    <g id="g264" transform="translate(117.513064, 195.141862)">
                        <polygon id="path262" points="0 1.3333333 0.909333311 0.423999989 1.81866662 1.3333333 0.909333311 2.24399994"></polygon>
                    </g>
                    <g id="g268" transform="translate(97.573598, 96.740931)">
                        <polygon id="path266" points="0 1.3333333 0.909333311 0.422666656 1.81866662 1.3333333 0.909333311 2.24266661"></polygon>
                    </g>
                    <g id="g272" transform="translate(154.935596, 95.895864)">
                        <polygon id="path270" points="1.3333333 2.6666666 0.423999989 1.75599996 1.3333333 0.847999979 2.24266661 1.75599996"></polygon>
                    </g>
                    <g id="g276" transform="translate(156.998663, 72.540398)">
                        <polygon id="path274" points="0 1.3333333 0.909333311 0.423999989 1.81866662 1.3333333 0.909333311 2.24399994"></polygon>
                    </g>
                    <g id="g280" transform="translate(165.587863, 111.089864)">
                        <polygon id="path278" points="1.3333333 2.6666666 0.423999989 1.75733329 1.3333333 0.847999979 2.24266661 1.75733329"></polygon>
                    </g>
                    <g id="g284" transform="translate(123.615197, 85.447865)">
                        <polygon id="path282" points="0 1.3333333 0.909333311 0.422666656 1.81866662 1.3333333 0.909333311 2.24266661"></polygon>
                    </g>
                    <g id="g288" transform="translate(3.968133, 90.160131)">
                        <polygon id="path286" points="0 1.3333333 0.909333311 0.423999989 1.81866662 1.3333333 0.909333311 2.24399994"></polygon>
                    </g>
                    <g id="g292" transform="translate(37.700532, 98.069064)">
                        <polygon id="path290" points="0 1.3333333 0.909333311 0.423999989 1.81866662 1.3333333 0.909333311 2.24399994"></polygon>
                    </g>
                    <g id="g296" transform="translate(63.393198, 65.960932)">
                        <polygon id="path294" points="0 1.3333333 0.909333311 0.422666656 1.81866662 1.3333333 0.909333311 2.24266661"></polygon>
                    </g>
                    <g id="g300" transform="translate(72.406265, 104.933597)">
                        <polygon id="path298" points="0 1.3333333 0.909333311 0.423999989 1.81866662 1.3333333 0.909333311 2.24399994"></polygon>
                    </g>
                    <g id="g304" transform="translate(30.009733, 78.867198)">
                        <polygon id="path302" points="0 1.3333333 0.909333311 0.423999989 1.81866662 1.3333333 0.909333311 2.24399994"></polygon>
                    </g>
                    <g id="g308" transform="translate(82.340531, 29.279999)">
                        <polygon id="path306" points="0 1.3333333 0.909333311 0.422666656 1.81866662 1.3333333 0.909333311 2.24266661"></polygon>
                    </g>
                    <g id="g312" transform="translate(116.073597, 37.188799)">
                        <polygon id="path310" points="0 1.3333333 0.909333311 0.422666656 1.81866662 1.3333333 0.909333311 2.24266661"></polygon>
                    </g>
                    <g id="g316" transform="translate(150.896530, 5.080667)">
                        <polygon id="path314" points="0 1.3333333 0.909333311 0.422666656 1.81866662 1.3333333 0.909333311 2.24266661"></polygon>
                    </g>
                    <g id="g320" transform="translate(156.998663, 40.763066)">
                        <polygon id="path318" points="0 1.3333333 0.909333311 0.422666656 1.81866662 1.3333333 0.909333311 2.24266661"></polygon>
                    </g>
                    <g id="g324" transform="translate(108.382131, 17.986933)">
                        <polygon id="path322" points="0 1.3333333 0.909333311 0.422666656 1.81866662 1.3333333 0.909333311 2.24266661"></polygon>
                    </g>
                    <g id="g328" transform="translate(0.169333, 24.753866)">
                        <polygon id="path326" points="0 1.3333333 0.909333311 0.423999989 1.81866662 1.3333333 0.909333311 2.24399994"></polygon>
                    </g>
                    <g id="g332" transform="translate(33.902399, 32.662799)">
                        <polygon id="path330" points="0 1.3333333 0.909333311 0.423999989 1.81866662 1.3333333 0.909333311 2.24399994"></polygon>
                    </g>
                    <g id="g336" transform="translate(59.594399, 0.554667)">
                        <polygon id="path334" points="0 1.3333333 0.909333311 0.422666656 1.81866662 1.3333333 0.909333311 2.24266661"></polygon>
                    </g>
                    <g id="g340" transform="translate(68.607465, 39.527332)">
                        <polygon id="path338" points="0 1.3333333 0.909333311 0.423999989 1.81866662 1.3333333 0.909333311 2.24399994"></polygon>
                    </g>
                    <g id="g344" transform="translate(26.210933, 13.460933)">
                        <polygon id="path342" points="0 1.3333333 0.909333311 0.423999989 1.81866662 1.3333333 0.909333311 2.24399994"></polygon>
                    </g>
                </g>
                <mask id="mask-4" fill="white">
                    <use xlink:href="#path-3"></use>
                </mask>
                <g id="path354"></g>
                <g id="g416" opacity="0.800003" mask="url(#mask-4)">
                    <g transform="translate(54.999998, 0.000000)" id="g414">
                        <g>
                            <g id="g412-Clipped">
                                <mask id="mask-6" fill="white">
                                    <use xlink:href="#path-5"></use>
                                </mask>
                                <g id="path358"></g>
                                <g id="g412" mask="url(#mask-6)">
                                    <g transform="translate(-43994.665567, -43889.332236)" id="g410">
                                        <g>
                                            <g id="g408-Clipped">
                                                <mask id="mask-8" fill="white">
                                                    <use xlink:href="#path-7"></use>
                                                </mask>
                                                <g id="path380"></g>
                                                <g id="g408" mask="url(#mask-8)">
                                                    <g transform="translate(43994.665567, 43889.332236)" id="g406">
                                                        <g>
                                                            <path d="M0.726666648,52.9279987 C0.726666648,52.9279987 8.24133313,52.5626654 8.82533311,51.8279987 C9.40799976,51.0933321 10.8639997,49.0746654 12.321333,50.3599987 C13.7786663,51.6439987 14.653333,51.4346654 14.653333,51.4346654 C14.653333,51.4346654 15.2359996,52.9279987 16.1106663,52.9279987 C16.9853329,52.9279987 17.5679996,53.4786653 18.4426662,53.8466653 C19.3159995,54.213332 21.3346661,53.8466653 21.3346661,53.8466653 C21.3346661,53.8466653 22.8133328,54.7639986 23.8333327,54.7639986 C24.854666,54.7639986 26.1653327,54.397332 27.3319993,54.7639986 C28.4973326,55.1319986 29.8079993,55.1319986 30.3906659,56.4159986 C30.9733326,57.6999986 30.5373326,58.0826652 31.5573325,58.9026652 C32.5773325,59.7199985 34.1799991,58.9146652 34.7626658,59.8679985 C35.3453324,60.8213318 36.6573324,61.0053318 37.0946657,60.8213318 C37.5319991,60.6386652 42.0493323,60.8853318 42.0493323,60.8853318 C42.0493323,60.8853318 42.6319989,62.1053318 42.7773323,62.6559984 C42.9226656,63.2066651 40.7373323,63.2053318 42.7773323,65.042665 C44.8173322,66.8799983 47.1493322,68.8973316 47.5866655,69.2639983 C48.0239988,69.6319983 46.8586655,69.8146649 48.7519988,71.6493315 C50.6466654,73.4853315 51.6666654,75.1386648 51.957332,75.6893314 C52.249332,76.2386648 53.561332,78.0746647 53.561332,78.0746647 C53.561332,78.0746647 55.7466653,78.991998 56.0386653,78.0746647 C56.3293319,77.1559981 58.9519985,74.7706648 58.9519985,74.7706648 C58.9519985,74.7706648 62.7413318,77.0546647 63.4706651,78.4813314 C64.1986651,79.9106647 64.926665,80.8266646 65.946665,82.1119979 C66.9679983,83.3973312 69.1533316,85.2319979 69.2986649,86.6999978 C69.4439983,88.1693311 69.5906649,88.5359978 70.0279982,89.0866644 C70.4653316,89.6386644 72.0679982,92.2066644 73.0866648,93.125331 C74.1079981,94.0426643 75.7106648,98.8146642 78.0426647,96.9786642 C80.3733313,95.1426643 81.247998,95.6946643 83.1426646,93.6759977 C85.0359979,91.6559977 86.7853312,90.5546644 86.9306645,90.0039977 C87.0773312,89.4546644 87.8053311,88.1693311 88.0973311,87.4346645 C88.3879978,86.6999978 88.9719978,85.5986645 90.5746644,84.6826645 C92.177331,83.7639979 92.613331,85.5986645 93.7799977,82.4786646 C94.945331,79.359998 98.7346642,74.0346648 98.8799975,73.6679982 C99.0266642,73.3026648 99.7546642,72.1999982 99.7546642,71.0999982 C99.7546642,69.9986649 99.7546642,66.8799983 100.337331,66.8799983 C100.919997,66.8799983 102.814664,65.046665 103.689331,66.8799983 C104.562664,68.7133316 105.582664,71.0999982 105.582664,71.0999982 C105.582664,71.0999982 105.729331,72.9333315 106.311997,73.6679982 C106.894664,74.4039981 108.934664,77.5239981 109.081331,78.0746647 C109.226667,78.6253314 108.935997,78.807998 110.101331,80.459998 C111.266664,82.1119979 113.59733,84.8653312 113.59733,84.8653312 L114.326664,86.5173312 L116.22133,88.5359978 L118.114664,89.6386644 L120.883997,92.0239977 L121.758664,94.7759976 L122.08533,95.8773309 L122.078664,0 L0.726666648,0 L0.726666648,52.9279987 Z" id="path404" fill="url(#linearGradient-9)" fill-rule="nonzero"></path>
                                                        </g>
                                                    </g>
                                                </g>
                                            </g>
                                        </g>
                                    </g>
                                </g>
                            </g>
                        </g>
                    </g>
                </g>
                <mask id="mask-11" fill="white">
                    <use xlink:href="#path-10"></use>
                </mask>
                <g id="path424"></g>
                <g id="g486" opacity="0.800003" mask="url(#mask-11)">
                    <g transform="translate(-8.000000, 0.000000)" id="g484">
                        <g transform="translate(-0.000000, 0.000000)">
                            <g id="g482-Clipped" transform="translate(-0.000000, 0.000000)">
                                <mask id="mask-13" fill="white">
                                    <use xlink:href="#path-12"></use>
                                </mask>
                                <g id="path428"></g>
                                <g id="g482" mask="url(#mask-13)">
                                    <g transform="translate(-43931.665568, -43889.332236)" id="g480">
                                        <g>
                                            <g id="g478-Clipped">
                                                <mask id="mask-15" fill="white">
                                                    <use xlink:href="#path-14"></use>
                                                </mask>
                                                <g id="path450"></g>
                                                <g id="g478" mask="url(#mask-15)">
                                                    <g transform="translate(43931.665568, 43889.332236)" id="g476">
                                                        <g transform="translate(-0.000000, 0.000000)">
                                                            <path d="M109.714664,51.5559987 C109.714664,51.5559987 102.927997,63.4533317 102.402664,62.5693318 C101.875997,61.6853318 100.559997,59.2519985 99.2439975,60.8013318 C97.9279975,62.3479984 97.1386642,62.0959984 97.1386642,62.0959984 C97.1386642,62.0959984 96.6119976,63.8946651 95.8226642,63.8946651 C95.0333309,63.8946651 94.5066643,64.5573317 93.717331,64.9999984 C92.9279977,65.4413317 91.105331,64.9999984 91.105331,64.9999984 C91.105331,64.9999984 89.7693311,66.1053317 88.8479978,66.1053317 C87.9266644,66.1053317 86.7426645,65.662665 85.6906645,66.1053317 C84.6373312,66.546665 83.4519979,66.546665 82.9266646,68.0933316 C82.3999979,69.6413316 82.7946646,70.1013316 81.8733313,71.0866649 C80.951998,72.0733315 79.5053313,71.1026649 78.9786647,72.2506649 C78.451998,73.3986648 77.267998,73.6199982 76.8733314,73.3986648 C76.4786647,73.1786648 72.3986648,73.4746648 72.3986648,73.4746648 C72.3986648,73.4746648 71.8719982,74.9466648 71.7413315,75.6093314 C71.6093315,76.2719981 73.5826648,76.2706648 71.7413315,78.4826647 C69.8986649,80.6946646 67.7933316,83.1239979 67.398665,83.5666646 C67.002665,84.0079979 68.0559983,84.2293312 66.3453316,86.4399978 C64.634665,88.6493311 63.7133317,90.6386644 63.4506651,91.3026644 C63.1879984,91.965331 62.0026651,94.1759976 62.0026651,94.1759976 C62.0026651,94.1759976 60.0293318,95.281331 59.7653318,94.1759976 C59.5026652,93.0706643 57.1346652,90.1959977 57.1346652,90.1959977 C57.1346652,90.1959977 53.713332,92.9479977 53.0546653,94.6666643 C52.3959987,96.3853309 51.7386653,97.4906642 50.817332,99.0373309 C49.8959987,100.585331 47.9226654,102.795997 47.7906654,104.563997 C47.6599988,106.331997 47.5279988,106.774664 47.1333321,107.437331 C46.7386655,108.099997 45.2906655,111.194664 44.3693322,112.299997 C43.4479989,113.40533 41.9999989,119.151997 39.8946656,116.94133 C37.7893324,114.731997 36.999999,115.394664 35.2893324,112.963997 C33.5786658,110.530664 31.9999992,109.205331 31.8679992,108.542664 C31.7359992,107.878664 31.0786659,106.331997 30.8146659,105.447997 C30.5519992,104.563997 30.0266659,103.238664 28.5786659,102.133331 C27.130666,101.027997 26.7359993,103.238664 25.682666,99.4799975 C24.630666,95.7226643 21.2093328,89.3106644 21.0773328,88.8693311 C20.9453328,88.4279978 20.2879995,87.1026645 20.2879995,85.7759979 C20.2879995,84.4506646 20.2879995,80.6946646 19.7613328,80.6946646 C19.2346662,80.6946646 17.5239995,78.4866647 16.7346662,80.6946646 C15.9453329,82.9039979 15.0239996,85.7759979 15.0239996,85.7759979 C15.0239996,85.7759979 14.8919996,87.9839978 14.3653329,88.8693311 C13.8399996,89.7546644 11.997333,93.513331 11.865333,94.1759976 C11.7346663,94.8386643 11.997333,95.0599976 10.9439997,97.0493309 C9.89199973,99.0373309 7.78666645,102.354664 7.78666645,102.354664 L7.1279998,104.342664 L5.41733317,106.774664 L3.70666655,108.099997 L1.20666661,110.973331 L0.417333298,114.28933 L0.121333305,115.615997 L0.127999972,0.154666663 L109.714664,0.154666663 L109.714664,51.5559987 Z" id="path474" fill="url(#linearGradient-16)" fill-rule="nonzero"></path>
                                                        </g>
                                                    </g>
                                                </g>
                                            </g>
                                        </g>
                                    </g>
                                </g>
                            </g>
                        </g>
                    </g>
                </g>
            </g>
            <g id="g542" transform="translate(91.666666, 121.833329) scale(-1, 1) rotate(-180.000000) translate(-91.666666, -121.833329) translate(45.666666, 75.333329)" fill="url(#radialGradient-17)" fill-rule="nonzero">
                <g id="g544">
                    <g id="g550">
                        <g id="g552">
                            <path d="M0.138666663,46.4853322 C0.138666663,21.2026661 20.6333328,0.706666649 45.9173322,0.706666649 L45.9173322,0.706666649 C71.1999982,0.706666649 91.6959977,21.2026661 91.6959977,46.4853322 L91.6959977,46.4853322 C91.6959977,71.7679982 71.1999982,92.2639977 45.9173322,92.2639977 L45.9173322,92.2639977 C20.6333328,92.2639977 0.138666663,71.7679982 0.138666663,46.4853322" id="path566"></path>
                        </g>
                    </g>
                </g>
            </g>
            <g id="g568" transform="translate(91.666664, 57.666665) scale(-1, 1) rotate(-180.000000) translate(-91.666664, -57.666665) translate(80.333331, 46.999999)">
                <g id="g570-Clipped">
                    <mask id="mask-19" fill="white">
                        <use xlink:href="#path-18"></use>
                    </mask>
                    <g id="path572"></g>
                    <g id="g570" mask="url(#mask-19)">
                        <g transform="translate(-44011.998900, -44123.998897)" id="g576">
                            <g>
                                <g id="g608-Clipped">
                                    <mask id="mask-21" fill="white">
                                        <use xlink:href="#path-20"></use>
                                    </mask>
                                    <g id="path598"></g>
                                    <g id="g608" mask="url(#mask-21)">
                                        <g transform="translate(44011.998900, 44123.998897)" id="g610">
                                            <g>
                                                <path d="M0.785333314,10.6999997 C0.785333314,4.92133321 5.47066653,0.234666661 11.2506664,0.234666661 L11.2506664,0.234666661 C17.0293329,0.234666661 21.7146661,4.92133321 21.7146661,10.6999997 L21.7146661,10.6999997 C21.7146661,16.4799996 17.0293329,21.1653328 11.2506664,21.1653328 L11.2506664,21.1653328 C5.47066653,21.1653328 0.785333314,16.4799996 0.785333314,10.6999997" id="path624" fill="url(#radialGradient-22)" fill-rule="nonzero"></path>
                                            </g>
                                        </g>
                                    </g>
                                </g>
                            </g>
                        </g>
                    </g>
                </g>
            </g>
            <g id="g626" transform="translate(91.666664, 184.333329) scale(-1, 1) rotate(-180.000000) translate(-91.666664, -184.333329) translate(84.333331, 176.333329)">
                <g id="g628-Clipped">
                    <mask id="mask-24" fill="white">
                        <use xlink:href="#path-23"></use>
                    </mask>
                    <g id="path630"></g>
                    <g id="g628" mask="url(#mask-24)">
                        <g transform="translate(-44015.998900, -43999.998900)" id="g634">
                            <g>
                                <g id="g666-Clipped">
                                    <mask id="mask-26" fill="white">
                                        <use xlink:href="#path-25"></use>
                                    </mask>
                                    <g id="path656"></g>
                                    <g id="g666" mask="url(#mask-26)">
                                        <g transform="translate(44015.998900, 43999.998900)" id="g668">
                                            <g>
                                                <path d="M0.0159999996,8.11733313 C0.0159999996,4.12266656 3.25599992,0.883999978 7.25066649,0.883999978 L7.25066649,0.883999978 C11.2453331,0.883999978 14.4826663,4.12266656 14.4826663,8.11733313 L14.4826663,8.11733313 C14.4826663,12.1119997 11.2453331,15.3506663 7.25066649,15.3506663 L7.25066649,15.3506663 C3.25599992,15.3506663 0.0159999996,12.1119997 0.0159999996,8.11733313" id="path682" fill="url(#radialGradient-27)" fill-rule="nonzero"></path>
                                            </g>
                                        </g>
                                    </g>
                                </g>
                            </g>
                        </g>
                    </g>
                </g>
            </g>
            <g id="g684" transform="translate(91.666664, 205.666662) scale(-1, 1) rotate(-180.000000) translate(-91.666664, -205.666662) translate(86.999998, 201.666662)">
                <g id="g686-Clipped">
                    <mask id="mask-29" fill="white">
                        <use xlink:href="#path-28"></use>
                    </mask>
                    <g id="path688"></g>
                    <g id="g686" mask="url(#mask-29)">
                        <g transform="translate(-44018.665566, -43982.665567)" id="g692">
                            <g>
                                <g id="g724-Clipped">
                                    <mask id="mask-31" fill="white">
                                        <use xlink:href="#path-30"></use>
                                    </mask>
                                    <g id="path714"></g>
                                    <g id="g724" mask="url(#mask-31)">
                                        <g transform="translate(44018.665566, 43982.665567)" id="g726">
                                            <g>
                                                <path d="M1.10399997,4.06266657 C1.10399997,2.13999995 2.66133327,0.582666652 4.58399989,0.582666652 L4.58399989,0.582666652 C6.50533317,0.582666652 8.06266647,2.13999995 8.06266647,4.06266657 L8.06266647,4.06266657 C8.06266647,5.98399985 6.50533317,7.54133314 4.58399989,7.54133314 L4.58399989,7.54133314 C2.66133327,7.54133314 1.10399997,5.98399985 1.10399997,4.06266657" id="path740" fill="url(#radialGradient-32)" fill-rule="nonzero"></path>
                                            </g>
                                        </g>
                                    </g>
                                </g>
                            </g>
                        </g>
                    </g>
                </g>
            </g>
            <g id="g742" transform="translate(91.666664, 34.999999) scale(-1, 1) rotate(-180.000000) translate(-91.666664, -34.999999) translate(86.999998, 30.999999)">
                <g id="g744-Clipped">
                    <mask id="mask-34" fill="white">
                        <use xlink:href="#path-33"></use>
                    </mask>
                    <g id="path746"></g>
                    <g id="g744" mask="url(#mask-34)">
                        <g transform="translate(-44018.665566, -44153.332229)" id="g750">
                            <g>
                                <g id="g782-Clipped">
                                    <mask id="mask-36" fill="white">
                                        <use xlink:href="#path-35"></use>
                                    </mask>
                                    <g id="path772"></g>
                                    <g id="g782" mask="url(#mask-36)">
                                        <g transform="translate(44018.665566, 44153.332229)" id="g784">
                                            <g>
                                                <path d="M1.10399997,3.64933324 C1.10399997,1.72799996 2.66133327,0.170666662 4.58399989,0.170666662 L4.58399989,0.170666662 C6.50533317,0.170666662 8.06266647,1.72799996 8.06266647,3.64933324 L8.06266647,3.64933324 C8.06266647,5.57199986 6.50533317,7.12799982 4.58399989,7.12799982 L4.58399989,7.12799982 C2.66133327,7.12799982 1.10399997,5.57199986 1.10399997,3.64933324" id="path798" fill="url(#radialGradient-37)" fill-rule="nonzero"></path>
                                            </g>
                                        </g>
                                    </g>
                                </g>
                            </g>
                        </g>
                    </g>
                </g>
            </g>
            <path d="M121.801894,302.373052 C119.58529,302.373052 118.475657,301.244194 114.705034,298.620172 L114.705034,298.620172 C110.935742,295.999672 106.27901,291.79243 106.27901,291.79243 L106.27901,291.79243 L103.174965,291.79243 C103.174965,291.79243 100.07092,292.776879 96.3002976,294.353054 L96.3002976,294.353054 C93.9905584,295.31813 93.5954014,295.251209 92.922171,295.182526 L92.922171,295.182526 C92.4950821,295.142021 91.9588926,295.099755 90.7561252,295.31813 L90.7561252,295.31813 C87.653411,295.881679 90.7561252,295.31813 88.9825754,297.010537 L88.9825754,297.010537 C87.2090257,298.702943 85.4354759,298.421169 84.5480358,298.607844 L84.5480358,298.607844 C83.6619262,298.792759 82.9953482,297.010537 81.2217984,296.159931 L81.2217984,296.159931 C79.4482487,295.311086 75.0123785,289.842905 75.0123785,289.842905 L75.0123785,289.842905 C75.0123785,289.842905 71.9083338,287.979673 69.6917292,286.285505 L69.6917292,286.285505 C67.4737942,284.591338 67.916849,285.156647 66.586354,284.874873 L66.586354,284.874873 C65.2558591,284.591338 64.1475568,284.874873 61.9296217,283.746015 L61.9296217,283.746015 C59.7130172,282.617157 59.4908245,286.00197 52.6161571,289.953854 L52.6161571,289.953854 C50.6084403,291.107367 49.6411704,291.635693 49.2606489,291.836458 L49.2606489,291.836458 C49.3378176,291.799475 49.4296217,291.755447 49.5294089,291.713181 L49.5294089,291.713181 C50.0123785,291.505373 50.6563381,291.297564 50.3995526,291.79243 L50.3995526,291.79243 C49.7329746,293.067459 45.2984349,294.752821 44.6331875,295.881679 L44.6331875,295.881679 C43.96794,297.010537 43.5248852,294.353054 43.5248852,294.353054 L43.5248852,294.353054 C43.5248852,294.353054 40.8625648,293.058653 39.089015,291.79243 L39.089015,291.79243 C37.3154653,290.526207 35.9849703,289.67384 34.6544754,289.360367 L34.6544754,289.360367 C33.3239804,289.046893 32.2143477,287.414363 31.328238,287.983195 L31.328238,287.983195 C30.8838527,288.264969 30.2199357,288.124082 29.5267479,287.981434 L29.5267479,287.981434 C28.83356,287.838786 28.1124317,287.697899 27.5576154,287.983195 L27.5576154,287.983195 C27.0959336,288.21742 26.1326553,287.962062 25.0389884,287.706704 L25.0389884,287.706704 C23.5075887,287.349203 21.718073,286.991702 20.6842785,287.983195 L20.6842785,287.983195 C18.9093982,289.677363 12.922171,289.955615 9.37507145,287.983195 L9.37507145,287.983195 C5.82797193,286.010775 1.8351566,283.746015 1.8351566,283.746015 L1.8351566,283.746015 C0.539254526,283.011641 0.191995345,279.230583 0.191995345,279.230583 L0.191995345,279.230583 L0.2039698,244 L185.181351,244 L185.191995,290.786849 L183.892102,291.79243 L178.347929,294.353054 C178.347929,294.353054 171.251069,297.85762 168.813603,298.607844 L168.813603,298.607844 C166.373475,299.358068 164.820787,299.831801 161.716743,300.731718 L161.716743,300.731718 C158.612698,301.628112 157.725258,298.984717 155.729515,298.607844 L155.729515,298.607844 C153.733773,298.22921 147.746546,293.261178 147.746546,293.261178 L147.746546,293.261178 C147.746546,293.261178 144.64117,293.058653 143.312006,293.261178 L143.312006,293.261178 C141.981511,293.467226 138.877466,294.469285 136.658201,295.881679 L136.658201,295.881679 C134.441596,297.292311 133.776349,297.575846 133.111101,298.607844 L133.111101,298.607844 C132.445854,299.639842 129.119616,300.96242 127.346067,302.373052 L127.346067,302.373052 C126.753996,302.843263 126.188536,303 125.612432,303 L125.612432,303 C124.462884,303 123.280074,302.373052 121.801894,302.373052" id="path540" fill="url(#linearGradient-38)" fill-rule="nonzero" transform="translate(92.691995, 273.500000) scale(-1, 1) rotate(-180.000000) translate(-92.691995, -273.500000) "></path>
        </g>
    </g>
</svg>